<?xml version="1.0" encoding="UTF-8" standalone="no"?>
<!-- Created with Inkscape (http://www.inkscape.org/) -->

<svg
   xmlns:dc="http://purl.org/dc/elements/1.1/"
   xmlns:cc="http://creativecommons.org/ns#"
   xmlns:rdf="http://www.w3.org/1999/02/22-rdf-syntax-ns#"
   xmlns:svg="http://www.w3.org/2000/svg"
   xmlns="http://www.w3.org/2000/svg"
   xmlns:xlink="http://www.w3.org/1999/xlink"
   xmlns:sodipodi="http://sodipodi.sourceforge.net/DTD/sodipodi-0.dtd"
   xmlns:inkscape="http://www.inkscape.org/namespaces/inkscape"
   width="16.000006"
   height="16.000008"
   id="svg5804"
   version="1.1"
   inkscape:version="0.48.3.1 r9886"
   sodipodi:docname="favicon.svg"
   inkscape:export-filename="favicon.png"
   inkscape:export-xdpi="89.999954"
   inkscape:export-ydpi="89.999954">
  <defs
     id="defs5806">
    <linearGradient
       inkscape:collect="always"
       xlink:href="#SVGID_12_"
       id="linearGradient5527"
       gradientUnits="userSpaceOnUse"
       x1="710.15039"
       y1="437.05859"
       x2="710.15039"
       y2="497.05859" />
    <linearGradient
       id="SVGID_12_"
       gradientUnits="userSpaceOnUse"
       x1="710.15039"
       y1="437.05859"
       x2="710.15039"
       y2="497.05859">
      <stop
         offset="0"
         style="stop-color:#AE0000"
         id="stop4071" />
      <stop
         offset="1"
         style="stop-color:#740000"
         id="stop4073" />
    </linearGradient>
    <linearGradient
       y2="497.05859"
       x2="710.15039"
       y1="437.05859"
       x1="710.15039"
       gradientUnits="userSpaceOnUse"
       id="linearGradient5802"
       xlink:href="#SVGID_12_"
       inkscape:collect="always" />
  </defs>
  <sodipodi:namedview
     id="base"
     pagecolor="#ffffff"
     bordercolor="#666666"
     borderopacity="1.0"
     inkscape:pageopacity="0.0"
     inkscape:pageshadow="2"
     inkscape:zoom="2.8"
     inkscape:cx="-61.479807"
     inkscape:cy="12.899055"
     inkscape:document-units="px"
     inkscape:current-layer="layer1"
     showgrid="false"
     fit-margin-top="0"
     fit-margin-left="0"
     fit-margin-right="0"
     fit-margin-bottom="0"
     inkscape:window-width="902"
     inkscape:window-height="442"
     inkscape:window-x="1956"
     inkscape:window-y="265"
     inkscape:window-maximized="0" />
  <metadata
     id="metadata5809">
    <rdf:RDF>
      <cc:Work
         rdf:about="">
        <dc:format>image/svg+xml</dc:format>
        <dc:type
           rdf:resource="http://purl.org/dc/dcmitype/StillImage" />
        <dc:title></dc:title>
      </cc:Work>
    </rdf:RDF>
  </metadata>
  <g
     inkscape:label="レイヤー 1"
     inkscape:groupmode="layer"
     id="layer1"
     transform="translate(-292.8568,-456.36248)">
    <polygon
       transform="matrix(0.26666357,0,0,0.26666213,111.48557,339.81568)"
       points="680.15,497.059 706.012,497.059 740.15,497.059 740.15,462.92 740.15,437.059 680.15,437.059 "
       id="polygon4075"
       style="fill:url(#linearGradient5802)" />
    <path
       d="m 307.13236,466.19779 c 2.00051,-2.0013 2.61331,-5.44018 -0.0893,-8.14333 -1.12639,-1.12584 -2.53704,-1.68983 -3.94663,-1.69197 h -8.6e-4 c -1.40958,-0.002 -2.81783,0.55812 -3.93969,1.6797 -0.67252,0.67199 -1.18238,1.53598 -1.44745,2.48797 -1.73064,-0.0264 -3.46689,0.64292 -4.85087,2.00796 v 9.72756 c 0.0304,0.0322 0.0606,0.0645 0.0917,0.0963 h 6.80472 2.9405 c 1.18238,-1.25785 1.92878,-2.93808 1.94532,-4.71246 0.90265,-0.23945 1.76157,-0.71998 2.49303,-1.4517 z m -3.66609,-0.73573 c -0.29893,0.49947 -0.26587,0.55707 -0.25307,1.49385 0.0165,1.06105 -0.3832,2.16049 -1.38371,3.16101 -1.52958,1.52984 -4.35355,1.87117 -6.43166,-0.20693 -1.63704,-1.6373 -2.40558,-4.39326 -0.224,-6.57535 0.81012,-0.80906 1.97491,-1.28718 3.19943,-1.26532 0.85146,0.0147 0.95039,0.0464 1.49892,-0.20265 0.54879,-0.25013 0.31093,-0.80506 0.63893,-1.78451 0.16,-0.47786 0.44425,-0.94692 0.88852,-1.39304 1.18691,-1.18611 3.37143,-1.45837 4.97141,0.1416 1.30318,1.30317 1.85597,3.38047 0.15252,5.08391 -0.38426,0.38506 -0.87572,0.66905 -1.41838,0.82319 -0.87092,0.24986 -1.33945,0.22346 -1.63891,0.72424 z"
       id="path4113"
       inkscape:connector-curvature="0"
       style="fill:#ffffff" />
  </g>
</svg>
